<svg xmlns="http://www.w3.org/2000/svg" viewBox="0 0 240 302">
<path d="M95.08 172.91C111.621 172.91 125.03 159.501 125.03 142.96C125.03 126.419 111.621 113.01 95.08 113.01C78.5391 113.01 65.13 126.419 65.13 142.96C65.13 159.501 78.5391 172.91 95.08 172.91Z" />
<path d="M237.594 157.828C238.957 156.142 239.078 153.77 237.895 151.954L211.677 111.73C211.401 111.306 211.196 110.84 211.07 110.35V110.35L196.161 51.9818C195.776 50.4742 194.711 49.2317 193.28 48.6208L123.058 18.6429C122.285 18.313 121.442 18.1831 120.605 18.2654L79.92 22.2677C78.8487 22.3731 77.84 22.8214 77.0439 23.546L23.9954 71.8298C23.0303 72.7083 22.4468 73.9293 22.3697 75.2321L19.58 122.37L18.58 138.37V138.43L18.22 144.43V144.43C18.1749 145.029 18.3525 145.623 18.7186 146.099L19.55 147.18L42 176.57L59.46 199.44L65.204 206.971C66.1975 208.273 66.4899 209.98 65.9867 211.539L38.8994 295.464C37.8574 298.693 40.265 302 43.6577 302H173.782C178.684 302 180.658 295.679 176.627 292.889L154.786 277.77C153.414 276.82 152.606 275.248 152.633 273.579L153.199 238.147C153.254 234.732 156.641 232.375 159.862 233.512L200.362 247.802C201.423 248.176 202.579 248.182 203.644 247.818L225.21 240.438C227.506 239.653 228.906 237.332 228.531 234.934L220.233 181.921C220.015 180.526 220.397 179.103 221.284 178.005L237.594 157.828ZM165.88 87.28C165.88 87.285 165.885 87.2886 165.89 87.2873C167.589 86.8098 169.345 86.5684 171.11 86.57C175.359 86.5765 179.489 87.9712 182.872 90.5418C186.255 93.1125 188.706 96.7182 189.85 100.81L194.85 118.86C195.595 121.339 195.839 123.941 195.566 126.515C195.293 129.089 194.51 131.582 193.262 133.85C192.014 136.117 190.326 138.112 188.297 139.719C186.268 141.326 183.939 142.512 181.446 143.208C178.953 143.904 176.346 144.095 173.778 143.771C171.21 143.447 168.733 142.614 166.491 141.321C164.249 140.028 162.287 138.3 160.721 136.239C159.155 134.179 158.016 131.826 157.37 129.32L152.32 111.26C151.633 108.794 151.439 106.218 151.749 103.677C152.059 101.136 152.866 98.6816 154.126 96.4534C155.385 94.2252 157.072 92.2672 159.089 90.6914C161.103 89.1177 163.407 87.956 165.87 87.2727C165.875 87.2713 165.88 87.275 165.88 87.28V87.28ZM95.52 98C104.318 97.998 112.918 100.605 120.235 105.491C127.551 110.378 133.253 117.324 136.621 125.451C139.989 133.579 140.872 142.523 139.157 151.151C137.441 159.78 133.206 167.707 126.986 173.929C120.765 180.15 112.84 184.388 104.211 186.105C95.5828 187.822 86.6388 186.941 78.5106 183.575C70.3823 180.209 63.4349 174.508 58.547 167.193C53.659 159.878 51.05 151.278 51.05 142.48C51.05 130.685 55.7349 119.373 64.0744 111.031C72.4138 102.69 83.7249 98.0027 95.52 98Z" />
<path d="M110.08 4.93242e-07C93.4563 0.00983645 77.0897 4.10418 62.4195 11.9229C47.7493 19.7417 35.225 31.0453 25.9481 44.8398C16.6712 58.6342 10.9258 74.4967 9.21729 91.0324C7.50878 107.568 9.88947 124.27 16.15 139.67C16.81 141.3 17.51 142.88 18.27 144.46C18.69 145.39 19.13 146.3 19.6 147.21C28.6868 165.097 42.8522 179.902 60.32 189.77C62.03 190.77 63.78 191.65 65.55 192.51C65.6207 192.558 65.6941 192.601 65.77 192.64C80.5512 199.804 96.851 203.272 113.268 202.746C129.686 202.22 145.73 197.715 160.022 189.619C174.314 181.523 186.427 170.077 195.319 156.266C204.21 142.455 209.616 126.691 211.07 110.33C211.35 107.4 211.48 104.42 211.48 101.4C211.481 88.0836 208.859 74.8974 203.764 62.5943C198.669 50.2913 191.2 39.1126 181.784 29.6964C172.367 20.2803 161.189 12.8113 148.886 7.71594C136.583 2.62058 123.396 -0.00131296 110.08 4.93242e-07ZM95.52 187C86.7227 187 78.1229 184.391 70.8082 179.504C63.4935 174.616 57.7924 167.669 54.4258 159.542C51.0592 151.414 50.1784 142.471 51.8947 133.842C53.6109 125.214 57.8472 117.289 64.0679 111.068C70.2885 104.847 78.2141 100.611 86.8424 98.8947C95.4706 97.1784 104.414 98.0593 112.542 101.426C120.669 104.792 127.616 110.494 132.504 117.808C137.391 125.123 140 133.723 140 142.52C140 154.317 135.314 165.63 126.972 173.972C118.63 182.314 107.317 187 95.52 187ZM181.36 142.82C178.896 143.511 176.321 143.709 173.781 143.403C171.24 143.097 168.785 142.293 166.556 141.037C164.327 139.781 162.367 138.098 160.789 136.084C159.211 134.07 158.046 131.765 157.36 129.3L152.31 111.24C151.621 108.775 151.425 106.199 151.733 103.658C152.041 101.117 152.846 98.6618 154.104 96.4327C155.362 94.2036 157.046 92.2443 159.062 90.667C161.077 89.0896 163.384 87.9251 165.85 87.24C167.552 86.7607 169.312 86.5184 171.08 86.52C175.329 86.5265 179.459 87.9212 182.842 90.4918C186.225 93.0625 188.675 96.6682 189.82 100.76L194.82 118.81C195.513 121.27 195.715 123.843 195.414 126.381C195.112 128.92 194.314 131.374 193.064 133.603C191.814 135.833 190.137 137.795 188.129 139.376C186.121 140.957 183.821 142.128 181.36 142.82ZM95.08 113C89.1573 112.994 83.3658 114.744 78.4377 118.029C73.5096 121.315 69.6661 125.987 67.3932 131.456C65.1203 136.926 64.52 142.946 65.6682 148.756C66.8164 154.567 69.6615 159.906 73.8439 164.1C78.0263 168.293 83.3582 171.152 89.1654 172.316C94.9727 173.48 100.995 172.896 106.47 170.637C111.945 168.379 116.628 164.548 119.926 159.629C123.224 154.709 124.99 148.923 125 143C125.007 139.065 124.238 135.168 122.737 131.53C121.237 127.893 119.035 124.586 116.256 121.8C113.478 119.014 110.177 116.803 106.544 115.293C102.91 113.783 99.0148 113.004 95.08 113Z" />
</svg>