<?xml version="1.0" standalone="no"?>
<!DOCTYPE svg PUBLIC "-//W3C//DTD SVG 20010904//EN"
 "http://www.w3.org/TR/2001/REC-SVG-20010904/DTD/svg10.dtd">
<svg version="1.0" xmlns="http://www.w3.org/2000/svg"
 width="302.000000pt" height="302.000000pt" viewBox="0 0 302.000000 302.000000"
 preserveAspectRatio="xMidYMid meet">
<metadata>
Created by potrace 1.14, written by Peter Selinger 2001-2017
</metadata>
<g transform="translate(0.000000,302.000000) scale(0.100000,-0.100000)"
fill="#000000" stroke="none">
<path d="M1265 3010 c-118 -20 -195 -44 -300 -96 -341 -167 -558 -505 -567
-885 -3 -123 23 -278 67 -390 4 -11 -9 -28 -42 -55 -108 -88 -113 -95 -108
-158 9 -128 149 -332 299 -435 l45 -31 -19 -33 c-28 -49 -34 -99 -16 -135 9
-17 20 -32 26 -34 7 -2 7 -13 -1 -36 -8 -23 -8 -40 0 -63 8 -25 8 -34 -2 -43
-43 -37 -57 -94 -32 -132 8 -13 11 -24 6 -24 -19 0 -35 -77 -23 -105 21 -45
50 -28 42 24 -1 8 4 24 10 37 10 18 18 21 45 17 45 -7 92 22 106 66 11 31 10
36 -10 52 -25 20 -51 14 -101 -21 -16 -11 -31 -20 -34 -20 -15 0 -3 42 20 69
21 25 29 29 44 21 10 -6 37 -10 60 -10 56 0 103 44 98 92 -3 29 -7 33 -35 36
-19 2 -51 -7 -82 -22 -59 -31 -71 -32 -71 -8 1 28 23 48 52 47 59 -4 138 52
138 96 0 24 -32 47 -59 43 -29 -5 -81 -36 -105 -63 -14 -16 -23 -18 -37 -10
-25 13 -24 50 1 98 19 37 21 38 63 34 40 -5 48 -2 102 43 l59 47 29 -34 c46
-55 47 -57 6 -179 -20 -63 -69 -214 -108 -335 -39 -121 -89 -276 -111 -345
-22 -69 -40 -126 -40 -127 0 -2 343 -3 763 -3 601 1 759 3 745 13 -9 7 -24 18
-35 25 -10 7 -86 59 -168 116 l-150 104 2 89 c1 48 2 149 3 224 l2 137 141
-50 c362 -127 350 -124 389 -109 13 5 25 9 28 10 3 1 48 17 100 35 85 30 95
36 94 57 -3 35 -13 121 -18 144 -2 11 -7 42 -10 69 -4 27 -14 86 -22 133 -8
46 -16 100 -19 121 -2 20 -7 53 -10 72 -6 36 2 47 133 205 10 11 27 33 39 48
l22 28 -142 217 -141 216 -2 107 c-3 129 -16 207 -54 319 -84 245 -249 442
-473 564 -81 44 -200 89 -266 101 -19 3 -38 8 -43 12 -16 9 -269 11 -323 3z
m-449 -2199 c-16 -17 -56 -35 -56 -25 0 4 62 44 69 44 2 0 -4 -9 -13 -19z m-5
-161 c-25 -22 -41 -26 -41 -10 0 11 30 29 50 29 10 0 8 -6 -9 -19z m-65 -155
c-11 -8 -25 -15 -30 -15 -6 0 -2 7 8 15 11 8 25 15 30 15 6 0 2 -7 -8 -15z"/>
</g>
</svg>
