<?xml version="1.0" standalone="no"?>
<!DOCTYPE svg PUBLIC "-//W3C//DTD SVG 20010904//EN"
 "http://www.w3.org/TR/2001/REC-SVG-20010904/DTD/svg10.dtd">
<svg version="1.0" xmlns="http://www.w3.org/2000/svg"
 width="248.000000pt" height="248.000000pt" viewBox="0 0 248.000000 248.000000"
 preserveAspectRatio="xMidYMid meet">
<metadata>
Created by potrace 1.14, written by Peter Selinger 2001-2017
</metadata>
<g transform="translate(0.000000,248.000000) scale(0.100000,-0.100000)"
fill="#000000" stroke="none">
<path d="M915 2460 c-98 -20 -196 -52 -232 -75 -13 -9 -23 -13 -23 -10 0 10
-138 -81 -206 -136 -39 -32 -91 -82 -115 -111 -24 -29 -47 -55 -50 -58 -21
-15 -102 -171 -132 -252 -49 -129 -67 -237 -62 -378 4 -134 13 -188 55 -313
40 -118 115 -247 196 -335 14 -15 42 -45 63 -67 20 -22 59 -69 86 -105 27 -36
54 -70 60 -77 5 -6 30 -39 54 -72 44 -59 45 -60 160 -101 64 -23 123 -44 131
-47 8 -3 20 -7 25 -9 6 -1 62 -21 125 -44 63 -23 126 -46 140 -50 14 -5 90
-32 170 -60 127 -46 239 -79 321 -93 13 -3 83 -16 154 -30 72 -15 145 -29 163
-32 32 -5 70 5 230 62 60 21 65 37 48 140 -8 49 -18 108 -21 133 -8 60 -11 79
-30 192 -25 151 -27 145 51 245 38 48 79 99 91 113 13 14 23 32 23 40 0 8 -36
69 -79 136 -43 67 -84 132 -91 145 -7 13 -16 26 -19 29 -11 9 -51 69 -51 76 0
4 -7 15 -16 25 -12 14 -17 45 -19 131 -5 173 -29 281 -97 428 -107 233 -333
437 -578 522 -157 54 -367 69 -525 38z m885 -870 c57 -29 85 -73 119 -190 34
-120 42 -173 30 -214 -43 -151 -250 -188 -338 -61 -32 48 -84 228 -85 295 0
35 7 68 19 90 46 89 165 126 255 80z m-700 -119 c160 -61 262 -179 291 -336
57 -306 -222 -578 -523 -511 -299 67 -444 400 -286 661 105 174 334 256 518
186z"/>
<path d="M857 1336 c-160 -59 -238 -217 -187 -376 52 -162 212 -244 380 -194
43 13 67 29 116 79 50 51 64 72 75 116 37 153 -26 296 -160 361 -57 28 -168
35 -224 14z"/>
</g>
</svg>
