<svg viewBox="0 0 1229 754"  xmlns="http://www.w3.org/2000/svg">
<path d="M630.64 -0.299988C515.79 -0.299988 422.64 92.8 422.64 207.7C422.618 234.615 427.835 261.278 438 286.2C439.34 289.53 440.77 292.78 442.33 296.03C443.2 297.94 444.11 299.8 445.06 301.66C463.701 338.349 492.759 368.718 528.59 388.96C532.1 390.96 535.69 392.81 539.33 394.59C539.468 394.685 539.611 394.772 539.76 394.85C568.087 408.602 599.171 415.728 630.66 415.69C739.35 415.69 828.55 332.33 837.82 226.02C838.39 220.02 838.65 213.89 838.65 207.7C838.63 92.8 745.53 -0.299988 630.64 -0.299988ZM600.79 383.28C582.745 383.286 565.103 377.941 550.096 367.921C535.088 357.9 523.389 343.655 516.478 326.986C509.566 310.317 507.753 291.973 511.267 274.273C514.78 256.573 523.464 240.313 536.219 227.548C548.974 214.784 565.227 206.088 582.924 202.56C600.621 199.033 618.967 200.832 635.641 207.731C652.316 214.63 666.57 226.318 676.602 241.318C686.634 256.317 691.992 273.955 692 292C692.005 303.983 689.65 315.849 685.069 326.921C680.488 337.994 673.771 348.055 665.301 356.532C656.831 365.008 646.775 371.733 635.706 376.322C624.637 380.912 612.773 383.276 600.79 383.28V383.28ZM776.85 292.65C771.801 294.059 766.523 294.459 761.319 293.827C756.115 293.196 751.087 291.546 746.521 288.971C741.955 286.396 737.94 282.946 734.708 278.82C731.475 274.693 729.087 269.97 727.68 264.92L717.32 227.92C714.477 217.709 715.806 206.787 721.016 197.557C726.226 188.326 734.889 181.543 745.1 178.7C755.311 175.857 766.233 177.186 775.463 182.396C784.694 187.606 791.477 196.269 794.32 206.48L804.63 243.48C806.036 248.533 806.433 253.813 805.798 259.019C805.163 264.225 803.508 269.255 800.928 273.821C798.349 278.388 794.894 282.401 790.763 285.631C786.631 288.862 781.904 291.247 776.85 292.65V292.65ZM599.85 231.52C587.701 231.524 575.826 235.13 565.725 241.881C555.625 248.633 547.753 258.228 543.105 269.453C538.457 280.677 537.24 293.028 539.61 304.944C541.98 316.86 547.829 327.805 556.418 336.398C565.008 344.99 575.952 350.842 587.867 353.216C599.782 355.59 612.133 354.377 623.359 349.733C634.585 345.088 644.182 337.219 650.938 327.121C657.693 317.023 661.302 305.149 661.31 293C661.315 284.929 659.73 276.936 656.646 269.478C653.561 262.02 649.037 255.242 643.332 249.533C637.628 243.824 630.854 239.294 623.398 236.204C615.943 233.113 607.951 231.521 599.88 231.52H599.85Z" />
<path d="M896.9 317.6L838.19 227.54L837.8 226.02L806 101.38L654.89 36.87L565.43 45.67L451 149.82L445 250.67L443 283.55V283.68L442.31 296L442.18 297.91L445.04 301.63L491.04 361.85L526.87 408.77L541.87 428.48L480.27 619.14H794.18L717.89 566.33L719.36 473.93L819.09 509.15L874.85 490.09L855.79 368.35L896.9 317.6ZM745.09 178.71C750.14 177.3 755.418 176.899 760.623 177.529C765.829 178.16 770.858 179.81 775.426 182.385C779.993 184.96 784.008 188.41 787.241 192.538C790.475 196.665 792.863 201.389 794.27 206.44L804.58 243.44C806.068 248.514 806.533 253.832 805.949 259.087C805.364 264.342 803.742 269.429 801.176 274.051C798.609 278.674 795.15 282.741 790.999 286.016C786.848 289.291 782.088 291.708 776.995 293.128C771.901 294.548 766.577 294.942 761.33 294.287C756.084 293.633 751.019 291.942 746.431 289.314C741.843 286.686 737.823 283.173 734.604 278.978C731.385 274.784 729.032 269.992 727.68 264.88L717.32 227.88C714.501 217.678 715.842 206.774 721.047 197.558C726.252 188.342 734.897 181.564 745.09 178.71ZM600.79 200.81C618.838 200.81 636.48 206.162 651.485 216.19C666.491 226.218 678.185 240.471 685.09 257.146C691.994 273.82 693.798 292.168 690.273 309.868C686.749 327.569 678.054 343.826 665.289 356.584C652.524 369.342 636.262 378.028 618.559 381.543C600.857 385.058 582.51 383.244 565.839 376.33C549.168 369.417 534.922 357.715 524.902 342.704C514.883 327.693 509.54 310.048 509.55 292C509.563 267.81 519.182 244.616 536.291 227.516C553.401 210.416 576.6 200.81 600.79 200.81V200.81Z" />
<path d="M553.17 383.98L539.1 395.37L535.89 397.97L443.14 283.64L443.05 283.55L445 250.67L485.81 301.01L530.99 356.64L553.17 383.98Z" />
<path d="M599.88 354.38C633.807 354.38 661.31 326.877 661.31 292.95C661.31 259.023 633.807 231.52 599.88 231.52C565.953 231.52 538.45 259.023 538.45 292.95C538.45 326.877 565.953 354.38 599.88 354.38Z" />
<path d="M98.5 672.81C96.5375 670.043 93.8773 667.845 90.79 666.44C87.7902 665 84.5076 664.245 81.18 664.23H-0.48999V681.34H75.67C80.67 681.34 83.04 684.5 82.87 690.87V700C82.9729 702.496 82.4177 704.976 81.26 707.19C80.18 709.1 78.14 710.01 75.15 710.01H18.27V691.01H-0.48999V754.31H18.27V727.14H80.27C84.0569 727.216 87.7912 726.244 91.06 724.33C94.2055 722.452 96.8156 719.797 98.64 716.62C100.571 713.273 101.604 709.484 101.64 705.62V682.35C101.594 678.924 100.498 675.594 98.5 672.81V672.81Z" />
<path d="M187.14 698.63C185.164 695.885 182.507 693.704 179.43 692.3C176.427 690.859 173.141 690.104 169.81 690.09H129.81C126.615 690.11 123.459 690.791 120.54 692.09C117.507 693.416 114.853 695.478 112.82 698.09C110.773 700.665 109.565 703.807 109.36 707.09H164.29C167.11 707.09 169.06 708.09 170.05 710C171.2 712.459 171.693 715.174 171.48 717.88V727.02C171.584 729.531 171.033 732.026 169.88 734.26C168.8 736.12 166.76 737.07 163.77 737.07H135.85C132.85 737.07 130.85 736.07 129.74 734.26C128.606 732.02 128.056 729.53 128.14 727.02V715.72H109.38V732.72C109.401 736.553 110.414 740.315 112.32 743.64C114.141 746.833 116.756 749.502 119.91 751.39C123.198 753.292 126.941 754.267 130.74 754.21H169C172.732 754.277 176.412 753.329 179.648 751.467C182.883 749.606 185.552 746.9 187.37 743.64C189.295 740.32 190.329 736.558 190.37 732.72V708.15C190.278 704.724 189.152 701.405 187.14 698.63V698.63Z" />
<path d="M276.69 724.58C274.958 721.431 272.358 718.845 269.2 717.13C265.569 715.137 261.471 714.149 257.33 714.27H224.75C222.85 714.384 220.953 714.009 219.24 713.18C217.94 712.45 217.3 711.62 217.3 710.67C217.3 709.72 217.99 708.76 219.37 707.98C221.119 707.113 223.061 706.71 225.01 706.81H274.44V689.7H219.89C215.743 689.59 211.638 690.562 207.98 692.52C204.83 694.252 202.245 696.851 200.53 700.01C198.899 702.982 198.036 706.314 198.02 709.704C198.005 713.094 198.836 716.434 200.44 719.42C202.149 722.495 204.685 725.031 207.76 726.74C211.391 728.733 215.489 729.721 219.63 729.6H252.17C254.123 729.514 256.069 729.902 257.84 730.73C259.19 731.51 259.84 732.42 259.84 733.46C259.793 734.032 259.589 734.581 259.253 735.046C258.916 735.512 258.459 735.876 257.93 736.1C256.195 736.895 254.296 737.266 252.39 737.18H198.28V754.3H257.58C261.703 754.416 265.783 753.444 269.41 751.48C272.499 749.749 275.037 747.18 276.73 744.07C278.362 741.098 279.212 737.76 279.2 734.37C279.199 730.948 278.336 727.581 276.69 724.58V724.58Z" />
<path d="M313.43 737.18C310.43 737.18 308.36 736.18 307.28 734.37C306.142 732.131 305.589 729.64 305.67 727.13V701.79H314.55V683H305.67V657.79H286.91V732.79C286.848 736.613 287.808 740.382 289.69 743.71C291.474 746.941 294.109 749.622 297.31 751.46C300.664 753.352 304.459 754.325 308.31 754.28H317.8V737.16L313.43 737.18Z" />
<path d="M387.64 690V727.17C387.744 729.681 387.193 732.176 386.04 734.41C384.95 736.27 382.92 737.22 379.93 737.22H352C349 737.22 347 736.22 345.89 734.41C344.752 732.171 344.199 729.68 344.28 727.17V690H325.52V732.85C325.532 736.684 326.545 740.448 328.46 743.77C330.278 747.039 332.953 749.75 336.197 751.612C339.441 753.474 343.131 754.417 346.87 754.34H385.08C388.813 754.41 392.494 753.464 395.73 751.602C398.966 749.74 401.635 747.032 403.45 743.77C405.379 740.451 406.413 736.688 406.45 732.85V690H387.64Z" />
<path d="M435.51 689.83C431.658 689.78 427.862 690.753 424.51 692.65C421.303 694.48 418.666 697.163 416.89 700.4C415.008 703.728 414.048 707.497 414.11 711.32V754.32H432.87V717C432.764 714.476 433.316 711.967 434.47 709.72C435.56 707.85 437.59 706.94 440.58 706.94H469.58V689.83H435.51Z" />
<path d="M504.7 731.64L547.15 725.23C554.65 724.23 558.37 719.77 558.37 711.71L558.24 708.24C558.186 704.79 557.084 701.438 555.08 698.63C553.102 695.888 550.445 693.706 547.37 692.3C544.382 690.866 541.114 690.111 537.8 690.09H497.8C494.482 690.105 491.209 690.86 488.22 692.3C485.13 693.682 482.467 695.868 480.51 698.63C478.482 701.426 477.377 704.786 477.35 708.24V732.81C477.386 736.641 478.398 740.399 480.29 743.73C482.11 746.921 484.721 749.589 487.87 751.48C491.165 753.374 494.909 754.348 498.71 754.3H548.87V737.18H503.87C500.87 737.18 498.8 736.18 497.72 734.37C496.586 732.13 496.036 729.64 496.12 727.13V718C495.907 715.294 496.4 712.579 497.55 710.12C498.55 708.17 500.49 707.21 503.35 707.21H532.29C533.917 707.148 535.527 707.554 536.93 708.38C537.485 708.707 537.943 709.178 538.254 709.743C538.566 710.307 538.72 710.945 538.7 711.59L504.7 717.27V731.64Z" />
<path d="M634.79 664.23H608.15L562.15 754.3H584.15L621.45 681.3L641.38 720.16H612.4L603.65 737.27H650.09L658.84 754.27H680.84L634.79 664.23Z" />
<path d="M767.23 724.58C765.502 721.441 762.919 718.858 759.78 717.13C756.132 715.142 752.023 714.155 747.87 714.27H715.33C713.421 714.382 711.514 714.007 709.79 713.18C708.49 712.45 707.79 711.62 707.79 710.67C707.79 709.72 708.48 708.76 709.87 707.98C711.615 707.113 713.554 706.71 715.5 706.81H765V689.7H710.46C706.309 689.589 702.201 690.561 698.54 692.52C695.39 694.251 692.805 696.851 691.09 700.01C689.459 702.982 688.596 706.314 688.58 709.704C688.565 713.093 689.396 716.433 691 719.42C692.717 722.506 695.272 725.044 698.37 726.74C701.985 728.738 706.071 729.726 710.2 729.6H742.73C744.687 729.515 746.635 729.903 748.41 730.73C749.75 731.51 750.41 732.42 750.41 733.46C750.362 734.031 750.16 734.578 749.826 735.043C749.491 735.508 749.036 735.874 748.51 736.1C746.772 736.897 744.87 737.267 742.96 737.18H688.81V754.3H748.12C752.239 754.415 756.316 753.443 759.94 751.48C763.03 749.746 765.57 747.178 767.27 744.07C768.894 741.095 769.74 737.759 769.73 734.37C769.732 730.948 768.872 727.582 767.23 724.58Z" />
<path d="M856.13 724.58C854.402 721.441 851.819 718.858 848.68 717.13C845.029 715.14 840.916 714.154 836.76 714.27H804.23C802.317 714.384 800.408 714.008 798.68 713.18C797.38 712.45 796.68 711.62 796.68 710.67C796.68 709.72 797.38 708.76 798.76 707.98C800.509 707.113 802.451 706.71 804.4 706.81H853.83V689.7H799.28C795.133 689.59 791.028 690.562 787.37 692.52C784.249 694.258 781.692 696.854 780 700C778.369 702.972 777.506 706.304 777.49 709.694C777.475 713.083 778.306 716.424 779.91 719.41C781.624 722.498 784.18 725.037 787.28 726.73C790.892 728.727 794.975 729.714 799.1 729.59H831.64C833.593 729.504 835.539 729.892 837.31 730.72C838.66 731.5 839.31 732.41 839.31 733.45C839.263 734.022 839.06 734.571 838.723 735.036C838.386 735.501 837.929 735.866 837.4 736.09C835.665 736.885 833.766 737.256 831.86 737.17H777.71V754.29H837C841.123 754.406 845.203 753.434 848.83 751.47C851.919 749.739 854.457 747.17 856.15 744.06C857.782 741.088 858.632 737.75 858.62 734.36C858.623 730.943 857.767 727.58 856.13 724.58V724.58Z" />
<path d="M866.35 690V754.34H885.11V690H866.35ZM866.35 664.27V682.27H885.11V664.27H866.35Z" />
<path d="M971.54 724.58C969.798 721.439 967.201 718.855 964.05 717.13C960.417 715.142 956.32 714.155 952.18 714.27H919.6C917.703 714.385 915.809 714.01 914.1 713.18C912.8 712.45 912.15 711.62 912.15 710.67C912.15 709.72 912.84 708.76 914.23 707.98C915.975 707.112 917.914 706.709 919.86 706.81H969.29V689.7H914.7C910.566 689.595 906.475 690.567 902.83 692.52C899.678 694.261 897.081 696.858 895.34 700.01C893.714 703.002 892.865 706.355 892.87 709.76C892.835 713.134 893.668 716.461 895.29 719.42C897.002 722.493 899.537 725.028 902.61 726.74C906.229 728.729 910.312 729.716 914.44 729.6H947C948.941 729.509 950.874 729.897 952.63 730.73C954.02 731.51 954.71 732.42 954.71 733.46C954.71 734.5 954.06 735.36 952.71 736.1C950.991 736.901 949.104 737.272 947.21 737.18H893.06V754.3H952.37C956.488 754.406 960.563 753.433 964.19 751.48C967.27 749.737 969.805 747.171 971.51 744.07C973.128 741.095 973.964 737.757 973.94 734.37C973.974 730.957 973.149 727.59 971.54 724.58V724.58Z" />
<path d="M1008.24 737.18C1005.24 737.18 1003.24 736.18 1002.13 734.37C1000.97 732.139 1000.41 729.643 1000.52 727.13V701.79H1009.41V683H1000.52V657.79H981.77V732.79C981.717 736.604 982.655 740.366 984.49 743.71C986.307 746.933 988.956 749.61 992.16 751.46C995.511 753.362 999.308 754.336 1003.16 754.28H1012.65V737.16L1008.24 737.18Z" />
<path d="M1040.81 690C1037.49 690.021 1034.21 690.761 1031.2 692.17C1028.12 693.606 1025.46 695.814 1023.48 698.58C1021.47 701.372 1020.37 704.712 1020.32 708.15V732.85C1020.36 736.688 1021.39 740.45 1023.32 743.77C1025.14 747.032 1027.8 749.74 1031.04 751.602C1034.28 753.464 1037.96 754.41 1041.69 754.34H1073.88V737.22H1046.88C1043.88 737.22 1041.88 736.22 1040.77 734.41C1039.61 732.179 1039.05 729.683 1039.16 727.17V716.65C1038.99 710.28 1041.37 707.11 1046.36 707.11H1082.53V754.34H1101.29V690H1040.81Z" />
<path d="M1186.94 700.53C1185.12 697.262 1182.45 694.55 1179.2 692.688C1175.96 690.826 1172.27 689.883 1168.53 689.96H1136.38V707.07H1163.38C1166.38 707.07 1168.38 707.98 1169.49 709.85C1170.64 712.097 1171.2 714.606 1171.09 717.13V754.3H1189.85V711.45C1189.84 707.619 1188.84 703.857 1186.94 700.53V700.53ZM1109 690V754.34H1127.8V690H1109Z" />
<path d="M1224.11 737.18C1221.11 737.18 1219.11 736.18 1218 734.37C1216.85 732.136 1216.3 729.641 1216.4 727.13V701.79H1225.28V683H1216.4V657.79H1197.64V732.79C1197.59 736.605 1198.53 740.368 1200.37 743.71C1202.18 746.935 1204.83 749.612 1208.04 751.46C1211.39 753.362 1215.19 754.336 1219.04 754.28H1228.53V737.16L1224.11 737.18Z" />
</svg>
